<?xml version="1.0" encoding="utf-8"?>
<!-- Generator: Adobe Illustrator 16.0.0, SVG Export Plug-In . SVG Version: 6.00 Build 0)  -->
<!DOCTYPE svg PUBLIC "-//W3C//DTD SVG 1.1//EN" "http://www.w3.org/Graphics/SVG/1.1/DTD/svg11.dtd">
<svg version="1.1" id="Layer_1" xmlns="http://www.w3.org/2000/svg" xmlns:xlink="http://www.w3.org/1999/xlink" x="0px" y="0px"
	 width="720px" height="480px" viewBox="0 0 720 480" enable-background="new 0 0 720 480" xml:space="preserve">
<g transform="translate(0.000000,512.000000) scale(0.100000,-0.100000)">
	<path fill="#161616" d="M3385.542,4787.319c-1145.2-66.328-2225.42-679.541-3086.352-1751.64
		c-224.707-280.21-224.707-330.288,1.357-613.218C1160.122,1349.013,2244.404,737.148,3395.024,673.525
		c1300.874-70.381,2531.343,544.18,3499.214,1750.302c224.727,280.195,224.727,330.283-1.348,613.208
		C6264.785,3820.805,5517.578,4359.56,4691.835,4623.52c-257.197,82.578-567.188,142.139-810.85,157.026
		C3615.683,4795.444,3558.818,4796.796,3385.542,4787.319z M3883.701,4156.508c388.496-73.096,762.109-338.413,965.156-683.599
		c243.662-416.928,269.385-920.488,69.033-1346.885c-78.516-166.514-154.307-274.814-282.91-407.461
		c-724.209-745.859-1957.402-518.457-2377.036,438.584c-151.611,345.186-154.316,767.524-6.768,1127.602
		c142.139,350.596,452.119,656.528,805.435,795.952C3324.629,4186.293,3592.661,4210.659,3883.701,4156.508z"/>
	<path fill="#161616" d="M3454.585,3501.337c-220.645-47.383-415.581-184.097-526.572-370.903
		c-82.578-136.719-109.648-238.242-108.296-400.684c0-157.026,14.888-220.649,77.158-351.958
		c58.213-120.479,226.06-288.32,349.243-347.891c434.526-209.814,939.448,4.063,1096.46,462.959
		c44.688,131.309,46.035,337.056,2.715,473.779c-98.818,312.695-385.791,530.639-714.726,542.817
		C3564.233,3512.163,3484.37,3508.105,3454.585,3501.337z"/>
</g>
</svg>
